<svg width="21" height="18" viewBox="0 0 21 18" fill="none" xmlns="http://www.w3.org/2000/svg">
<path d="M20.0049 2.99976H13.0049C9.6912 2.99976 7.00488 5.68605 7.00488 8.99977C7.00488 12.3135 9.6912 14.9998 13.0049 14.9998H20.0049V16.9998C20.0049 17.5521 19.5572 17.9998 19.0049 17.9998H1.00488C0.452603 17.9998 0.00488281 17.5521 0.00488281 16.9998V0.999756C0.00488281 0.447466 0.452603 -0.000244141 1.00488 -0.000244141H19.0049C19.5572 -0.000244141 20.0049 0.447466 20.0049 0.999756V2.99976ZM13.0049 4.99976H21.0049V12.9998H13.0049C10.7957 12.9998 9.0049 11.2089 9.0049 8.99977C9.0049 6.79062 10.7957 4.99976 13.0049 4.99976ZM13.0049 7.99977V9.99977H16.0049V7.99977H13.0049Z" fill="white"/>
</svg>
