<svg width="19" height="20" viewBox="0 0 19 20" fill="none" xmlns="http://www.w3.org/2000/svg">
<path d="M17.625 0.625H5.625C5.32663 0.625 5.04048 0.743526 4.8295 0.954505C4.61853 1.16548 4.5 1.45163 4.5 1.75V5.125H1.125C0.826631 5.125 0.540483 5.24353 0.329505 5.4545C0.118526 5.66548 0 5.95163 0 6.25V18.25C0 18.5484 0.118526 18.8345 0.329505 19.0455C0.540483 19.2565 0.826631 19.375 1.125 19.375H13.125C13.4234 19.375 13.7095 19.2565 13.9205 19.0455C14.1315 18.8345 14.25 18.5484 14.25 18.25V14.875H17.625C17.9234 14.875 18.2095 14.7565 18.4205 14.5455C18.6315 14.3345 18.75 14.0484 18.75 13.75V1.75C18.75 1.45163 18.6315 1.16548 18.4205 0.954505C18.2095 0.743526 17.9234 0.625 17.625 0.625ZM12 17.125H2.25V7.375H12V17.125ZM16.5 12.625H14.25V6.25C14.25 5.95163 14.1315 5.66548 13.9205 5.4545C13.7095 5.24353 13.4234 5.125 13.125 5.125H6.75V2.875H16.5V12.625Z" fill="white"/>
</svg>
