<svg width="21" height="22" viewBox="0 0 21 22" fill="none" xmlns="http://www.w3.org/2000/svg">
<path d="M9.55237 18.0001H11.3979V16.7859C12.2232 16.6359 12.9379 16.3109 13.5419 15.8109C14.1459 15.3109 14.4479 14.5573 14.4479 13.5501C14.4479 12.8381 14.2459 12.1855 13.8419 11.5921C13.4379 10.999 12.63 10.4857 11.4181 10.0524C10.4221 9.71904 9.73637 9.42738 9.36088 9.17738C8.98554 8.92738 8.79788 8.59162 8.79788 8.17013C8.79788 7.76079 8.94713 7.43813 9.24563 7.20213C9.54396 6.96596 9.96688 6.84787 10.5144 6.84787C11.0397 6.84787 11.4554 6.97704 11.7614 7.23537C12.0672 7.49371 12.2868 7.82054 12.4201 8.21588L14.1039 7.53013C13.9125 6.91479 13.574 6.38946 13.0884 5.95412C12.6027 5.51879 12.0559 5.27221 11.4479 5.21438V4.00013H9.60238V5.21438C8.75304 5.40554 8.09904 5.78013 7.64037 6.33813C7.18171 6.89613 6.95237 7.51679 6.95237 8.20013C6.95237 8.99946 7.18846 9.64671 7.66063 10.1419C8.13296 10.6372 8.88671 11.0679 9.92188 11.4339C10.92 11.7932 11.6163 12.1189 12.0106 12.4109C12.4051 12.703 12.6024 13.0828 12.6024 13.5501C12.6024 14.0841 12.4165 14.4764 12.0446 14.7269C11.673 14.9772 11.2081 15.1024 10.6501 15.1024C10.1001 15.1024 9.61663 14.9325 9.19963 14.5929C8.78263 14.2532 8.47613 13.7337 8.28013 13.0344L6.54638 13.7201C6.77171 14.5481 7.13821 15.214 7.64587 15.7176C8.15337 16.2211 8.78888 16.5605 9.55237 16.7359V18.0001ZM10.5001 21.2034C9.08496 21.2034 7.75704 20.9359 6.51638 20.4009C5.27588 19.8659 4.19662 19.1395 3.27863 18.2216C2.36079 17.3036 1.63437 16.2244 1.09937 14.9839C0.564375 13.7432 0.296875 12.4153 0.296875 11.0001C0.296875 9.58496 0.564375 8.25704 1.09937 7.01638C1.63437 5.77588 2.36079 4.69663 3.27863 3.77863C4.19662 2.86079 5.27588 2.13437 6.51638 1.59937C7.75704 1.06437 9.08496 0.796875 10.5001 0.796875C11.9153 0.796875 13.2432 1.06437 14.4839 1.59937C15.7244 2.13437 16.8036 2.86079 17.7216 3.77863C18.6395 4.69663 19.3659 5.77588 19.9009 7.01638C20.4359 8.25704 20.7034 9.58496 20.7034 11.0001C20.7034 12.4153 20.4359 13.7432 19.9009 14.9839C19.3659 16.2244 18.6395 17.3036 17.7216 18.2216C16.8036 19.1395 15.7244 19.8659 14.4839 20.4009C13.2432 20.9359 11.9153 21.2034 10.5001 21.2034ZM10.5001 18.9284C12.7175 18.9284 14.5932 18.1614 16.1274 16.6274C17.6614 15.0932 18.4284 13.2175 18.4284 11.0001C18.4284 8.78279 17.6614 6.90704 16.1274 5.37287C14.5932 3.83887 12.7175 3.07188 10.5001 3.07188C8.28279 3.07188 6.40704 3.83887 4.87288 5.37287C3.33888 6.90704 2.57187 8.78279 2.57187 11.0001C2.57187 13.2175 3.33888 15.0932 4.87288 16.6274C6.40704 18.1614 8.28279 18.9284 10.5001 18.9284Z" fill="white"/>
</svg>
