<svg width="32" height="32" viewBox="0 0 32 32" fill="none" xmlns="http://www.w3.org/2000/svg">
<rect width="32" height="32" rx="16" fill="#7E7E7E"/>
<path d="M16 6C16.5523 6 17 6.44772 17 7V10C17 10.5523 16.5523 11 16 11C15.4477 11 15 10.5523 15 10V7C15 6.44772 15.4477 6 16 6ZM16 21C16.5523 21 17 21.4477 17 22V25C17 25.5523 16.5523 26 16 26C15.4477 26 15 25.5523 15 25V22C15 21.4477 15.4477 21 16 21ZM26 16C26 16.5523 25.5523 17 25 17H22C21.4477 17 21 16.5523 21 16C21 15.4477 21.4477 15 22 15H25C25.5523 15 26 15.4477 26 16ZM11 16C11 16.5523 10.5523 17 10 17H7C6.44772 17 6 16.5523 6 16C6 15.4477 6.44772 15 7 15H10C10.5523 15 11 15.4477 11 16ZM23.0711 23.0711C22.6805 23.4616 22.0474 23.4616 21.6569 23.0711L19.5355 20.9497C19.145 20.5592 19.145 19.9261 19.5355 19.5355C19.9261 19.145 20.5592 19.145 20.9497 19.5355L23.0711 21.6569C23.4616 22.0474 23.4616 22.6805 23.0711 23.0711ZM12.4645 12.4645C12.0739 12.855 11.4408 12.855 11.0503 12.4645L8.92893 10.3432C8.53841 9.95262 8.53841 9.31946 8.92893 8.92893C9.31946 8.53841 9.95262 8.53841 10.3432 8.92893L12.4645 11.0503C12.855 11.4408 12.855 12.0739 12.4645 12.4645ZM8.92893 23.0711C8.53841 22.6805 8.53841 22.0474 8.92893 21.6569L11.0503 19.5355C11.4408 19.145 12.0739 19.145 12.4645 19.5355C12.855 19.9261 12.855 20.5592 12.4645 20.9497L10.3432 23.0711C9.95262 23.4616 9.31946 23.4616 8.92893 23.0711ZM19.5355 12.4645C19.145 12.0739 19.145 11.4408 19.5355 11.0503L21.6569 8.92893C22.0474 8.53841 22.6805 8.53841 23.0711 8.92893C23.4616 9.31946 23.4616 9.95262 23.0711 10.3432L20.9497 12.4645C20.5592 12.855 19.9261 12.855 19.5355 12.4645Z" fill="white"/>
</svg>
