<svg width="163" height="64" viewBox="0 0 163 64" fill="none" xmlns="http://www.w3.org/2000/svg">
<rect width="63.0912" height="63.0912" rx="31.5456" fill="url(#paint0_linear_856_70)"/>
<path d="M50.9521 24.5507L50.2494 15.1519H12.9469L12.2442 24.5507H14.8208L16.4019 18.6947H28.8458V63.5042H34.3212V18.6947H46.8236L48.3169 24.5507H50.9521Z" fill="#1E1E1E"/>
<path d="M152.388 33.5436V22.4926H146.582V19.1748H163V22.4926H157.121V33.5436H152.388Z" fill="#88C13C"/>
<path d="M131.359 33.5436C130.253 33.5436 129.44 33.4949 128.919 33.3973C128.399 33.2997 128.139 33.1858 128.139 33.0557L129.603 29.9087C129.977 29.9738 130.749 30.0389 131.92 30.1039C133.091 30.1527 134.612 30.1771 136.482 30.1771H138.409C138.978 30.1771 139.361 30.0958 139.556 29.9331C139.751 29.7705 139.849 29.5347 139.849 29.2257V28.9817C139.849 28.5914 139.751 28.3231 139.556 28.1767C139.361 28.0303 138.978 27.9571 138.409 27.9571H132.823C131.18 27.9571 129.985 27.6562 129.237 27.0545C128.489 26.4365 128.114 25.4363 128.114 24.0539V23.1756C128.114 22.4601 128.245 21.8014 128.505 21.1996C128.781 20.5979 129.245 20.1181 129.895 19.7603C130.546 19.3862 131.44 19.1992 132.579 19.1992H140.678C141.67 19.1992 142.491 19.2561 143.142 19.37C143.809 19.4838 144.142 19.6058 144.142 19.7359L143.41 22.7609C142.955 22.7121 142.093 22.6633 140.824 22.6146C139.572 22.5495 137.978 22.517 136.043 22.517L134.286 22.4926C133.782 22.4926 133.424 22.5658 133.213 22.7121C133.002 22.8422 132.888 23.0943 132.872 23.4684V23.6392C132.872 24.0132 132.985 24.2734 133.213 24.4198C133.441 24.5662 133.807 24.6394 134.311 24.6394H139.678C140.719 24.6394 141.605 24.7451 142.337 24.9565C143.069 25.1679 143.63 25.5583 144.02 26.1275C144.41 26.6804 144.606 27.5017 144.606 28.5914V29.4696C144.606 30.6894 144.289 31.6733 143.654 32.4215C143.036 33.1696 141.955 33.5436 140.41 33.5436H131.359Z" fill="#88C13C"/>
<path d="M113.469 33.7261C111.843 33.7261 110.607 33.3439 109.761 32.5795C108.932 31.8151 108.517 30.5791 108.517 28.8714V19.1377H113.274V28.4323C113.274 29.1967 113.461 29.709 113.835 29.9692C114.209 30.2294 114.673 30.3595 115.226 30.3595H118.373C118.893 30.3595 119.348 30.2294 119.739 29.9692C120.129 29.6927 120.324 29.1804 120.324 28.4323V19.1377H125.008V28.8714C125.008 30.5791 124.593 31.8151 123.764 32.5795C122.951 33.3439 121.723 33.7261 120.08 33.7261H113.469Z" fill="#88C13C"/>
<path d="M103.84 33.7876C103.189 33.7876 102.465 33.69 101.668 33.4948C100.872 33.2834 100.083 32.7792 99.3021 31.9823L98.2775 30.9577C97.7896 30.4698 97.318 30.0714 96.8626 29.7624C96.4235 29.4534 95.9193 29.2257 95.3501 29.0793C94.7809 28.9167 94.0653 28.8353 93.2033 28.8353H93.0081V33.5436H88.2511V21.1508L88.0071 19.1748H99.3021C100.343 19.1748 101.181 19.3049 101.815 19.5651C102.465 19.8091 102.961 20.1425 103.303 20.5653C103.661 20.9719 103.905 21.4354 104.035 21.9559C104.165 22.4763 104.23 23.0049 104.23 23.5416V24.0051C104.23 24.9809 103.978 25.8591 103.474 26.6398C102.986 27.4041 102.205 27.949 101.132 28.2742C101.538 28.5182 101.921 28.7703 102.278 29.0305C102.652 29.2745 103.075 29.5347 103.547 29.8111C104.084 30.1202 104.58 30.3478 105.035 30.4942C105.507 30.6243 105.897 30.7056 106.206 30.7382C106.515 30.7707 106.694 30.787 106.743 30.787L106.011 33.5436C105.816 33.5924 105.515 33.6412 105.108 33.69C104.718 33.7551 104.295 33.7876 103.84 33.7876ZM95.838 25.5908C96.2446 25.5908 96.6349 25.5826 97.009 25.5664C97.3993 25.5501 97.749 25.5257 98.058 25.4932C98.6109 25.4281 98.985 25.2574 99.1802 24.9809C99.3916 24.6881 99.4973 24.3385 99.4973 23.9319V23.6635C99.4973 23.3057 99.3916 23.0293 99.1802 22.8341C98.985 22.6389 98.6191 22.5414 98.0824 22.5414H93.0081V25.4932C93.4147 25.5094 93.862 25.5338 94.3499 25.5664C94.8378 25.5826 95.3338 25.5908 95.838 25.5908Z" fill="#88C13C"/>
<path d="M74.9583 33.5436V22.4926H69.1522V19.1748H85.5702V22.4926H79.691V33.5436H74.9583Z" fill="#88C13C"/>
<path d="M149.81 43.9536V38.9323L149.712 38.1416H151.53L154.318 40.9685L154.703 41.4034H154.812V38.1416H156.71V43.9536H155.059L152.193 41.097L151.807 40.6324H151.708V43.9536H149.81Z" fill="white"/>
<path d="M146.237 43.9536V38.1416H148.134V43.9536H146.237Z" fill="white"/>
<path d="M137.011 43.9536L139.907 38.1416H142.477L145.364 43.9536H143.238L142.754 42.8959H139.631L139.087 43.9536H137.011ZM140.174 41.5319H142.201L141.242 39.4266H141.143L140.174 41.5319Z" fill="white"/>
<path d="M129.258 43.9536V38.1416H131.165V40.3557H134.239V38.1416H136.137V43.9536H134.239V41.6999H131.165V43.9536H129.258Z" fill="white"/>
<path d="M123.501 43.9537C122.796 43.9537 122.285 43.7988 121.969 43.4891C121.653 43.1794 121.495 42.6786 121.495 41.9867V40.1779C121.495 39.4662 121.669 38.9489 122.018 38.6261C122.368 38.2966 122.862 38.1318 123.501 38.1318H126.387C126.842 38.1318 127.188 38.1582 127.425 38.2109C127.669 38.257 127.791 38.3065 127.791 38.3592L127.484 39.5947C127.32 39.5749 126.997 39.5552 126.516 39.5354C126.041 39.509 125.442 39.4959 124.717 39.4959H124.213C123.903 39.4959 123.692 39.5552 123.58 39.6738C123.475 39.7858 123.422 39.9604 123.422 40.1977V41.8879C123.422 42.1119 123.468 42.2865 123.56 42.4117C123.659 42.5303 123.877 42.5897 124.213 42.5897H124.618C125.56 42.5897 126.279 42.5798 126.773 42.56C127.267 42.5336 127.564 42.5073 127.662 42.4809L128.265 43.5484C128.265 43.5814 128.196 43.6308 128.058 43.6967C127.926 43.7626 127.699 43.8219 127.376 43.8746C127.059 43.9273 126.618 43.9537 126.051 43.9537H123.501Z" fill="white"/>
<path d="M116.844 42.1743V40.6323H120.007V42.1743H116.844Z" fill="white"/>
<path d="M108.362 43.9536V38.9323L108.263 38.1416H110.082L112.869 40.9685L113.255 41.4034H113.363V38.1416H115.261V43.9536H113.611L110.744 41.097L110.359 40.6324H110.26V43.9536H108.362Z" fill="white"/>
<path d="M101.899 43.9536C101.2 43.9536 100.689 43.7987 100.366 43.489C100.05 43.1727 99.892 42.6719 99.892 41.9866V40.0987C99.892 39.4266 100.05 38.9323 100.366 38.616C100.683 38.2998 101.193 38.1416 101.899 38.1416H104.785C105.477 38.1416 105.981 38.2998 106.297 38.616C106.62 38.9323 106.781 39.4266 106.781 40.0987V41.9866C106.781 42.6719 106.62 43.1727 106.297 43.489C105.974 43.7987 105.47 43.9536 104.785 43.9536H101.899ZM102.581 42.6093H104.113C104.627 42.6093 104.884 42.3754 104.884 41.9075V40.1778C104.884 39.7165 104.627 39.4859 104.113 39.4859H102.581C102.317 39.4859 102.119 39.5386 101.987 39.644C101.856 39.7494 101.79 39.9274 101.79 40.1778V41.9075C101.79 42.1513 101.856 42.3292 101.987 42.4413C102.119 42.5533 102.317 42.6093 102.581 42.6093Z" fill="white"/>
<path d="M92.532 43.9537V39.4761H90.1796V38.1318H96.8317V39.4761H94.4496V43.9537H92.532Z" fill="white"/>
<path d="M83.0022 43.9536V38.1416H89.3479V39.4859H84.9297V40.3063H88.2014V41.6802H84.9297V42.5994H89.1898L89.7829 43.8448C89.7829 43.8712 89.6939 43.8976 89.516 43.9239C89.3381 43.9437 89.0316 43.9536 88.5967 43.9536H83.0022Z" fill="white"/>
<path d="M74.923 43.9537V38.1318H79.4302C80.0496 38.1318 80.501 38.257 80.7844 38.5074C81.0677 38.7513 81.2094 39.0478 81.2094 39.397V39.6936C81.2094 39.9637 81.1501 40.1878 81.0315 40.3657C80.9194 40.537 80.7975 40.6589 80.6657 40.7314C80.9557 40.8237 81.1863 40.9851 81.3576 41.2157C81.529 41.4398 81.6146 41.7363 81.6146 42.1053V42.2832C81.6146 42.4809 81.5916 42.6786 81.5455 42.8763C81.4993 43.074 81.4104 43.2552 81.2786 43.4199C81.1534 43.5781 80.9722 43.7066 80.7349 43.8054C80.5043 43.9043 80.2012 43.9537 79.8256 43.9537H74.923ZM76.8504 40.3756H78.8273C78.9986 40.3756 79.1172 40.3393 79.1831 40.2668C79.249 40.1944 79.2819 40.0955 79.2819 39.9703V39.8715C79.2819 39.7331 79.249 39.6342 79.1831 39.5749C79.1172 39.5156 78.9689 39.486 78.7383 39.486H76.8504V40.3756ZM76.8504 42.5995H79.2325C79.4039 42.5995 79.5225 42.5699 79.5884 42.5106C79.6543 42.4447 79.6872 42.3425 79.6872 42.2042V42.0262C79.6872 41.901 79.6444 41.8055 79.5587 41.7396C79.473 41.6671 79.3248 41.6309 79.1139 41.6309H76.8504V42.5995Z" fill="white"/>
<rect x="73.6064" y="22.5024" width="7.36065" height="0.841217" fill="#1E1E1E"/>
<rect x="151.104" y="22.5024" width="7.36065" height="0.841217" fill="#1E1E1E"/>
<rect x="93.9008" y="23.6592" width="7.78125" height="0.841217" transform="rotate(90 93.9008 23.6592)" fill="#1E1E1E"/>
<rect x="117.139" y="27.0239" width="7.78125" height="0.841217" transform="rotate(90 117.139 27.0239)" fill="#1E1E1E"/>
<defs>
<linearGradient id="paint0_linear_856_70" x1="31.5456" y1="0" x2="31.5456" y2="63.0912" gradientUnits="userSpaceOnUse">
<stop stop-color="#219653"/>
<stop offset="1" stop-color="#88C13C"/>
</linearGradient>
</defs>
</svg>
