<svg width="48" height="48" viewBox="0 0 48 48" fill="none" xmlns="http://www.w3.org/2000/svg">
<g clip-path="url(#clip0_872_9641)">
<g clip-path="url(#clip1_872_9641)">
<g clip-path="url(#clip2_872_9641)">
<path d="M48 24C48 10.7452 37.2548 0 24 0C10.7452 0 0 10.7452 0 24C0 37.2548 10.7452 48 24 48C37.2548 48 48 37.2548 48 24Z" fill="white" fill-opacity="0.1"/>
<path d="M25.9212 23.519C25.9212 28.2238 22.1332 32.0378 17.4607 32.0378C12.7883 32.0378 9 28.2238 9 23.519C9 18.8142 12.788 15 17.4607 15C22.1335 15 25.9212 18.8142 25.9212 23.519Z" fill="white"/>
<path d="M35.201 23.5181C35.201 27.9466 33.307 31.5381 30.9706 31.5381C28.6342 31.5381 26.7402 27.9466 26.7402 23.5181C26.7402 19.0895 28.6339 15.498 30.9703 15.498C33.3067 15.498 35.2007 19.0884 35.2007 23.5181" fill="white"/>
<path d="M38.9988 23.5167C38.9988 27.4836 38.3328 30.7014 37.511 30.7014C36.6892 30.7014 36.0234 27.4844 36.0234 23.5167C36.0234 19.5489 36.6895 16.332 37.511 16.332C38.3325 16.332 38.9988 19.5487 38.9988 23.5167Z" fill="white"/>
</g>
</g>
</g>
<defs>
<clipPath id="clip0_872_9641">
<rect width="48" height="48" fill="white"/>
</clipPath>
<clipPath id="clip1_872_9641">
<rect width="48" height="48" fill="white"/>
</clipPath>
<clipPath id="clip2_872_9641">
<rect width="48" height="48" fill="white"/>
</clipPath>
</defs>
</svg>
