<svg width="52" height="52" viewBox="0 0 52 52" fill="none" xmlns="http://www.w3.org/2000/svg">
<circle cx="26" cy="26" r="26" fill="#227C7C"/>
<g clip-path="url(#clip0_1058_285)">
<mask id="mask0_1058_285" style="mask-type:luminance" maskUnits="userSpaceOnUse" x="10" y="10" width="31" height="31">
<path d="M41 10H10V41H41V10Z" fill="white"/>
</mask>
<g mask="url(#mask0_1058_285)">
<path d="M21.6257 32.6845C21.4174 32.6845 21.2111 32.5953 21.0672 32.4229C20.8105 32.1148 20.8522 31.6566 21.1602 31.3999L28.2403 25.4997L21.1602 19.5996C20.8522 19.3428 20.8105 18.8846 21.0672 18.5761C21.3244 18.268 21.7817 18.2259 22.0907 18.4831L29.8407 24.9412C30.0068 25.0793 30.1023 25.2837 30.1023 25.4992C30.1023 25.7148 30.0068 25.9192 29.8407 26.0572L22.0907 32.5154C21.9546 32.6292 21.7894 32.6845 21.6257 32.6845Z" fill="white"/>
</g>
</g>
<defs>
<clipPath id="clip0_1058_285">
<rect width="31" height="31" fill="white" transform="translate(10 10)"/>
</clipPath>
</defs>
</svg>
