<svg width="22" height="22" viewBox="0 0 22 22" fill="none" xmlns="http://www.w3.org/2000/svg">
<path d="M10.0524 18.0001H11.8979V16.7859C12.7232 16.6359 13.4379 16.3109 14.0419 15.8109C14.6459 15.3109 14.9479 14.5573 14.9479 13.5501C14.9479 12.8381 14.7459 12.1855 14.3419 11.5921C13.9379 10.999 13.13 10.4857 11.9181 10.0524C10.9221 9.71904 10.2364 9.42738 9.86088 9.17738C9.48554 8.92738 9.29788 8.59162 9.29788 8.17013C9.29788 7.76079 9.44713 7.43813 9.74563 7.20213C10.044 6.96596 10.4669 6.84787 11.0144 6.84787C11.5397 6.84787 11.9554 6.97704 12.2614 7.23537C12.5672 7.49371 12.7868 7.82054 12.9201 8.21588L14.6039 7.53013C14.4125 6.91479 14.074 6.38946 13.5884 5.95412C13.1027 5.51879 12.5559 5.27221 11.9479 5.21438V4.00013H10.1024V5.21438C9.25304 5.40554 8.59904 5.78013 8.14037 6.33813C7.68171 6.89613 7.45237 7.51679 7.45237 8.20013C7.45237 8.99946 7.68846 9.64671 8.16063 10.1419C8.63296 10.6372 9.38671 11.0679 10.4219 11.4339C11.42 11.7932 12.1163 12.1189 12.5106 12.4109C12.9051 12.703 13.1024 13.0828 13.1024 13.5501C13.1024 14.0841 12.9165 14.4764 12.5446 14.7269C12.173 14.9772 11.7081 15.1024 11.1501 15.1024C10.6001 15.1024 10.1166 14.9325 9.69963 14.5929C9.28263 14.2532 8.97613 13.7337 8.78013 13.0344L7.04638 13.7201C7.27171 14.5481 7.63821 15.214 8.14587 15.7176C8.65337 16.2211 9.28888 16.5605 10.0524 16.7359V18.0001ZM11.0001 21.2034C9.58496 21.2034 8.25704 20.9359 7.01638 20.4009C5.77588 19.8659 4.69662 19.1395 3.77863 18.2216C2.86079 17.3036 2.13437 16.2244 1.59937 14.9839C1.06437 13.7432 0.796875 12.4153 0.796875 11.0001C0.796875 9.58496 1.06437 8.25704 1.59937 7.01638C2.13437 5.77588 2.86079 4.69663 3.77863 3.77863C4.69662 2.86079 5.77588 2.13437 7.01638 1.59937C8.25704 1.06437 9.58496 0.796875 11.0001 0.796875C12.4153 0.796875 13.7432 1.06437 14.9839 1.59937C16.2244 2.13437 17.3036 2.86079 18.2216 3.77863C19.1395 4.69663 19.8659 5.77588 20.4009 7.01638C20.9359 8.25704 21.2034 9.58496 21.2034 11.0001C21.2034 12.4153 20.9359 13.7432 20.4009 14.9839C19.8659 16.2244 19.1395 17.3036 18.2216 18.2216C17.3036 19.1395 16.2244 19.8659 14.9839 20.4009C13.7432 20.9359 12.4153 21.2034 11.0001 21.2034ZM11.0001 18.9284C13.2175 18.9284 15.0932 18.1614 16.6274 16.6274C18.1614 15.0932 18.9284 13.2175 18.9284 11.0001C18.9284 8.78279 18.1614 6.90704 16.6274 5.37287C15.0932 3.83887 13.2175 3.07188 11.0001 3.07188C8.78279 3.07188 6.90704 3.83887 5.37288 5.37287C3.83888 6.90704 3.07187 8.78279 3.07187 11.0001C3.07187 13.2175 3.83888 15.0932 5.37288 16.6274C6.90704 18.1614 8.78279 18.9284 11.0001 18.9284Z" fill="white"/>
</svg>
