<svg width="48" height="48" viewBox="0 0 48 48" fill="none" xmlns="http://www.w3.org/2000/svg">
<rect width="48" height="48" rx="24" fill="white" fill-opacity="0.1"/>
<path d="M21.7279 30.0984C21.1932 30.0984 21.2892 29.8928 21.0972 29.3855L19.5343 24.2306L29.2409 18.1709L30.3788 18.4725L29.4328 21.05L21.7279 30.0984Z" fill="#C8DAEA"/>
<path d="M21.7279 30.0983C22.1392 30.0983 22.3174 29.9064 22.5505 29.687C22.9069 29.3443 27.486 24.8886 27.486 24.8886L24.6755 24.2031L22.0706 25.8483L21.7279 29.9612V30.0983Z" fill="#A9C9DD"/>
<path d="M22.0021 25.9029L28.6376 30.7973C29.3916 31.2086 29.94 31.0029 30.132 30.0981L32.8328 17.3754C33.107 16.2649 32.4078 15.7714 31.6812 16.1004L15.8327 22.215C14.7496 22.6537 14.7633 23.2569 15.6407 23.5174L19.7125 24.7924L29.1312 18.8561C29.5699 18.5819 29.9812 18.7327 29.6521 19.0343L22.0021 25.9029Z" fill="url(#paint0_linear_856_23)"/>
<defs>
<linearGradient id="paint0_linear_856_23" x1="25.9767" y1="23.0725" x2="29.4041" y2="28.5564" gradientUnits="userSpaceOnUse">
<stop stop-color="#EFF7FC"/>
<stop offset="1" stop-color="white"/>
</linearGradient>
</defs>
</svg>
