<svg width="48" height="48" viewBox="0 0 48 48" fill="none" xmlns="http://www.w3.org/2000/svg">
<rect width="48" height="48" rx="24" fill="white" fill-opacity="0.1"/>
<path d="M24.2439 16C24.778 16.0029 26.1143 16.0159 27.5341 16.0727L28.0375 16.0947C29.467 16.1624 30.8953 16.278 31.6037 16.4755C32.5486 16.741 33.2913 17.5155 33.5423 18.4973C33.942 20.0564 33.992 23.0994 33.9982 23.8358L33.9991 23.9884V23.9991C33.9991 23.9991 33.9991 24.0028 33.9991 24.0099L33.9982 24.1625C33.992 24.8989 33.942 27.9419 33.5423 29.501C33.2878 30.4864 32.5451 31.261 31.6037 31.5228C30.8953 31.7203 29.467 31.8359 28.0375 31.9036L27.5341 31.9255C26.1143 31.9824 24.778 31.9953 24.2439 31.9983L24.0095 31.9991H23.9991C23.9991 31.9991 23.9956 31.9991 23.9887 31.9991L23.7545 31.9983C22.6241 31.9921 17.8977 31.941 16.3945 31.5228C15.4496 31.2573 14.7069 30.4828 14.4559 29.501C14.0562 27.9419 14.0062 24.8989 14 24.1625V23.8358C14.0062 23.0994 14.0562 20.0564 14.4559 18.4973C14.7104 17.5119 15.4531 16.7373 16.3945 16.4755C17.8977 16.0572 22.6241 16.0062 23.7545 16H24.2439ZM21.9991 20.4991V27.4991L27.9991 23.9991L21.9991 20.4991Z" fill="white"/>
</svg>
